<?xml version="1.0" standalone="no"?><!DOCTYPE svg PUBLIC "-//W3C//DTD SVG 1.1//EN" "http://www.w3.org/Graphics/SVG/1.1/DTD/svg11.dtd"><svg t="1782134240638" class="icon" viewBox="0 0 1205 1024" version="1.1" xmlns="http://www.w3.org/2000/svg" p-id="5015" xmlns:xlink="http://www.w3.org/1999/xlink" width="37.65625" height="32"><path d="M1014.586443 729.747012l63.558368 70.620519H951.027084l63.559359-70.620519z m-588.505975-557.90299h98.868131V7.062151c0-5.423803-1.637356-7.061159-7.061159-7.061159h-91.806972v171.84303zM677.960549 7.062151v164.781871h94.161353c5.424795 0 7.062151-1.637356 7.062151-7.061159V7.063143c0-5.423803-1.637356-7.061159-7.062151-7.06116h-87.09821c-5.423803 0-7.062151 1.637356-7.062151 7.06116z m-127.116735 0v164.781871h101.222512V7.062151c0-5.423803-1.637356-7.061159-7.061159-7.061159h-87.099202c-5.423803 0-7.061159 1.637356-7.061159 7.061159zM407.247404 781.535459c0 24.322322-3.396695 35.310755 7.062151 35.310755h402.537651c0-30.206291 5.276035-51.789438-16.477691-51.789438H423.726087c-10.989425 0-16.478683 5.489258-16.478683 16.478683z m-70.620518 72.9749v37.664144h550.84183c0-20.406949 4.792068-49.434066-11.769921-49.434066H353.10656c-7.932895 0-16.478683 4.15934-16.478683 11.769922z m-44.725304 68.267129c-5.052894 21.688271-2.353389 65.07969-2.353389 89.452591 0 5.489258 6.280663 11.769921 11.769921 11.769921h621.461357c5.488266 0 11.769921-6.280663 11.769922-11.769921v-77.68267c0-11.266119-7.967606-16.478683-18.832073-16.478683H310.733654c-8.3643 0-13.313062 1.972563-18.832072 4.708762zM190.678078 729.747012l65.912749 70.620519H124.76533l65.911756-70.620519zM1035.771905 706.20717l63.558367-70.620519V776.827689L1035.771905 706.20717zM929.840631 776.827689V637.941032l63.558367 68.266138L929.840631 776.827689z m-717.977092-70.620519c11.527938-12.977855 52.097868-62.945475 63.558368-70.620519V776.827689l-63.558368-70.620519zM105.932266 776.827689V635.586651L169.490633 706.20717 105.932266 776.827689z m908.652194-266.004384l80.03705 84.744821-80.03705 87.09821-80.037051-84.744821 80.037051-87.09821z m-826.261755-2.353389l82.39044 89.452591-80.03705 84.744821-80.037051-84.744821 77.68267-89.452591z m847.448208-21.186453l63.558368-70.620519v141.241038l-63.558368-70.620519z m-105.931274 68.26713V416.662944l63.558368 70.620519-63.558368 68.26713z m-717.977091-70.620519l63.558367-68.26713v138.887649l-63.558367-70.620519z m-105.931274 70.620519V416.662944l63.558367 70.620519-63.558367 68.26713z m828.615143-178.906174l77.68267-87.09821 80.036059 89.453583-77.68267 84.744821-80.03705-87.099202z m-746.224703-87.09821l82.39044 87.09821-80.037051 87.099202-80.037051-84.744821 77.68267-89.453583z m847.448207-21.186453c2.563637-9.601987 57.558366-66.602005 63.558368-70.620519v138.887649l-63.558368-68.26713z m-823.907373 0l63.558367-70.620519v138.887649l-63.558367-68.26713z m-105.931274 68.26713V197.739237l63.558367 68.26713-63.558367 70.620519z m823.907373 0V197.739237l63.558368 70.620519-63.558368 68.26713z m18.832072-164.781872h131.825498l-68.266138 72.9749-63.55936-72.9749z m-823.907373 0h131.825497l-68.267129 72.9749L124.763346 171.845014z m-49.435057-16.477691v645.0012c-44.936543 0-75.328289-7.390416-75.328289 16.478683v120.054584c0 7.609589 8.545788 11.769921 16.477691 11.769921h244.818922c0-31.383481 6.976862-56.497208 47.080677-56.497208 0-77.542835 13.936864-75.328289 70.620518-75.328289v-16.478683H306.022909V247.172311h68.267129c0 66.977873 1.265455 28.449927-26.388108 51.295554-17.679675 14.605294-13.631409 35.702491-13.631409 61.697871 0 5.488266 6.281655 11.769921 11.769921 11.769921h80.037051c20.770916 0 16.477691-18.741824 16.477691-42.372906 0-20.528932-14.333558-40.017534-40.017533-40.017534v-42.372906h178.905181c10.459838 0 7.062151 10.989425 7.062151 35.310755 0 11.184797-9.842978 3.516695-25.07009 14.948435-19.255543 14.458517-14.948435 38.508112-14.948435 62.734235 0 5.488266 6.281655 11.769921 11.769921 11.769921h84.745813c16.370584 0 11.769921-27.966951 11.769921-47.080676 0-14.973228-14.387112-35.310755-40.018525-35.310755V247.171319h185.968324v42.372907c-46.152412 0-40.017534 44.438692-40.017534 70.620518 0 5.488266 6.280663 11.769921 11.769922 11.769922h84.74482c18.474056 0 19.688932-68.840353-13.895211-80.26515-16.899179-5.749093-14.353393 6.982812-14.353393-44.498197h68.26713v553.19522h-54.141836c0 19.524304 0.090248 16.967609 23.559677 16.457857 49.626462-1.077025 47.05985 36.782491 47.05985 75.349115 14.661823 0 27.873728 3.863803 36.824144 14.964303 7.707771 9.559342 10.255541 25.032405 10.255541 41.531914h225.986849c7.932895 0 16.477691-4.160332 16.477692-11.769921V816.845222c0-23.869099-30.391745-16.478683-75.328289-16.478683V160.07311c0-8.410912-2.718348-11.439673-7.919011-15.620832L913.360956 0H805.076293v171.843031h94.161353v47.080676H306.0239v-47.080676h91.806972V0H291.899598L99.556396 132.510787c-6.64463 5.002316-24.227115 14.400996-24.227115 22.854552z" p-id="5016"></path></svg>